{"title":"The.Good.Dinosaur.2015.CAM.x264-Gigantor","uid":12958648,"size":1086570555,"categoryP":"video","categoryS":"movies","magnet":"?xt=urn:btih:078223bbb648972571c4321dc172ef8cae9381ca&amp;dn=The.Good.Dinosaur.2015.CAM.x264-Gigantor&amp;tr=udp%3A%2F%2Ftracker.leechers-paradise.org%3A6969&amp;tr=udp%3A%2F%2Fzer0day.ch%3A1337&amp;tr=udp%3A%2F%2Fopen.demonii.com%3A1337&amp;tr=udp%3A%2F%2Ftracker.coppersurfer.tk%3A6969&amp;tr=udp%3A%2F%2Fexodus.desync.com%3A6969","seeders":0,"leechers":3,"uploader":"TvTeam","files":4,"time":1449819123,"description":"------------------------------------------------------------------------\r\n\r  https://www.torrenting.com\r\n\r\nSign up is OPEN - for time being. Come and have fun.\r\n\r\n------------------------------------------------------------------------[img]http://i.imgur.com/3aRm5tf.jpg[/img]\n\nThe.Good.Dinosaur.2015.NEWCAM.x264-Gigantor\n\nSources: 00aaT.G.Dino.SCR.LAT // Audio - UnKnOwN \nhttp://www.imdb.com/title/tt1979388/\n\nGeneral\nComplete name                            : The.Good.Dinosaur.2015.NEWCAM.x264-Gigantor.mp4\nFormat                                   : MPEG-4\nFormat profile                           : Base Media\nCodec ID                                 : isom\nFile size                                : 1 009 MiB\nDuration                                 : 1h 25mn\nOverall bit rate mode                    : Variable\nOverall bit rate                         : 1 642 Kbps\nEncoded date                             : UTC 2015-12-11 04:34:58\nTagged date                              : UTC 2015-12-11 04:34:58\n\nVideo\nID                                       : 1\nFormat                                   : AVC\nFormat/Info                              : Advanced Video Codec\nFormat profile                           :   \nFormat settings, CABAC                   : Yes\nFormat settings, ReFrames                : 3 frames\nCodec ID                                 : avc1\nCodec ID/Info                            : Advanced Video Coding\nDuration                                 : 1h 25mn\nBit rate mode                            : Variable\nBit rate                                 : 1 552 Kbps\nWidth                                    : 720 pixels\nHeight                                   : 378 pixels\nDisplay aspect ratio                     : 1.905\nFrame rate mode                          : Constant\nFrame rate                               : 23.976 fps\nColor space                              : YUV\nChroma subsampling                       : 4:2:0\nBit depth                                : 8 bits\nScan type                                : Progressive\nBits/(Pixel*Frame)                       : 0.238\nStream size                              : 954 MiB (94%)\nWriting library                          : x264 core 148 r2638 7599210\n\nAudio\nID                                       : 2\nFormat                                   : AAC\nFormat/Info                              : Advanced Audio Codec\nFormat profile                           : LC\nCodec ID                                 : 40\nDuration                                 : 1h 25mn\nBit rate mode                            : Variable\nBit rate                                 : 86.3 Kbps\nMaximum bit rate                         : 132 Kbps\nChannel(s)                               : 2 channels\nChannel positions                        : Front: L R\nSampling rate                            : 48.0 KHz\nCompression mode                         : Lossy\nStream size                              : 53.0 MiB (5%)\nLanguage                                 : English\nEncoded date                             : UTC 2015-12-11 03:42:47\nTagged date                              : UTC 2015-12-11 04:35:33\n\n[img]http://i.imgur.com/F2BqxH8.jpg[/img]\n[img]http://i.imgur.com/nVqcslj.jpg[/img]\n[img]http://i.imgur.com/xsm1zNs.jpg[/img]\n[img]http://i.imgur.com/BnVCgxE.jpg[/img]\n[img]http://i.imgur.com/qZalvWx.jpg[/img]\n[img]http://i.imgur.com/KtGZSpX.jpg[/img]\n[img]http://i.imgur.com/y2b6ST3.jpg[/img]\n[img]http://i.imgur.com/oNsrI3j.jpg[/img]","torrent":{"xt":"urn:btih:078223bbb648972571c4321dc172ef8cae9381ca","amp;dn":"The.Good.Dinosaur.2015.CAM.x264-Gigantor","amp;tr":["udp%3A%2F%2Ftracker.leechers-paradise.org%3A6969","udp%3A%2F%2Fzer0day.ch%3A1337","udp%3A%2F%2Fopen.demonii.com%3A1337","udp%3A%2F%2Ftracker.coppersurfer.tk%3A6969","udp%3A%2F%2Fexodus.desync.com%3A6969"],"infoHash":"078223bbb648972571c4321dc172ef8cae9381ca","infoHashBuffer":{"type":"Buffer","data":[7,130,35,187,182,72,151,37,113,196,50,29,193,114,239,140,174,147,129,202]},"announce":[],"urlList":[]}}